<svg xmlns="http://www.w3.org/2000/svg" viewBox="0 0 512 512">
  <defs>
    <linearGradient id="bgGradient" x1="0%" y1="0%" x2="100%" y2="100%">
      <stop offset="0%" stop-color="#10b981"/>
      <stop offset="100%" stop-color="#047857"/>
    </linearGradient>
    <linearGradient id="moonGradient" x1="0%" y1="0%" x2="100%" y2="100%">
      <stop offset="0%" stop-color="#fbbf24"/>
      <stop offset="50%" stop-color="#f59e0b"/>
      <stop offset="100%" stop-color="#d97706"/>
    </linearGradient>
  </defs>
  
  <!-- Background -->
  <rect width="512" height="512" rx="100" fill="url(#bgGradient)"/>
  
  <!-- Arabesque pattern overlay -->
  <g fill="#fff" fill-opacity="0.1">
    <path d="M136 134v-4h-2v4h-4v2h4v4h2v-4h4v-2h-4zm0 120v-4h-2v4h-4v2h4v4h2v-4h4v-2h-4zm0 120v-4h-2v4h-4v2h4v4h2v-4h4v-2h-4z"/>
    <path d="M256 134v-4h-2v4h-4v2h4v4h2v-4h4v-2h-4zm0 120v-4h-2v4h-4v2h4v4h2v-4h4v-2h-4zm0 120v-4h-2v4h-4v2h4v4h2v-4h4v-2h-4z"/>
    <path d="M376 134v-4h-2v4h-4v2h4v4h2v-4h4v-2h-4zm0 120v-4h-2v4h-4v2h4v4h2v-4h4v-2h-4zm0 120v-4h-2v4h-4v2h4v4h2v-4h4v-2h-4z"/>
  </g>
  
  <!-- Mosque silhouette -->
  <g fill="#fff">
    <!-- Central dome -->
    <path d="M156 340 Q256 220 356 340 L356 400 L156 400 Z" fill-opacity="0.95"/>
    
    <!-- Left minaret -->
    <rect x="100" y="260" width="35" height="140" rx="5" fill-opacity="0.9"/>
    <path d="M100 260 Q117.5 230 135 260" fill-opacity="0.9"/>
    
    <!-- Right minaret -->
    <rect x="377" y="260" width="35" height="140" rx="5" fill-opacity="0.9"/>
    <path d="M377 260 Q394.5 230 412 260" fill-opacity="0.9"/>
    
    <!-- Door arch -->
    <path d="M226 400 L226 350 Q256 310 286 350 L286 400 Z" fill="#047857"/>
    
    <!-- Windows -->
    <ellipse cx="190" cy="350" rx="15" ry="20" fill="#047857"/>
    <ellipse cx="322" cy="350" rx="15" ry="20" fill="#047857"/>
  </g>
  
  <!-- Crescent moon -->
  <g transform="translate(256, 180)">
    <path d="M0 -60 A60 60 0 1 1 0 60 A45 45 0 1 0 0 -60" fill="url(#moonGradient)"/>
  </g>
  
  <!-- Star -->
  <path d="M310 130 l5 10 11 2 -8 8 2 11 -10 -5 -10 5 2 -11 -8 -8 11 -2z" fill="#fbbf24"/>
</svg>
